<svg xmlns="http://www.w3.org/2000/svg" width="1200" height="630" viewBox="0 0 1200 630">
  <defs>
    <linearGradient id="bg" x1="0" y1="0" x2="1" y2="1">
      <stop offset="0" stop-color="#0A0A0A"/>
      <stop offset="1" stop-color="#05080F"/>
    </linearGradient>
    <radialGradient id="aura" cx="0.25" cy="0.2" r="0.7">
      <stop offset="0" stop-color="#2563EB" stop-opacity="0.45"/>
      <stop offset="1" stop-color="#2563EB" stop-opacity="0"/>
    </radialGradient>
    <radialGradient id="aura2" cx="0.95" cy="1" r="0.6">
      <stop offset="0" stop-color="#7C3AED" stop-opacity="0.30"/>
      <stop offset="1" stop-color="#7C3AED" stop-opacity="0"/>
    </radialGradient>
    <linearGradient id="chip" x1="0.1" y1="0" x2="0.9" y2="1">
      <stop offset="0" stop-color="#3B82F6"/>
      <stop offset="1" stop-color="#1D4ED8"/>
    </linearGradient>
    <linearGradient id="txt" x1="0" y1="0" x2="1" y2="0">
      <stop offset="0" stop-color="#ffffff"/>
      <stop offset="1" stop-color="#A9C2FF"/>
    </linearGradient>
  </defs>

  <rect width="1200" height="630" fill="url(#bg)"/>
  <rect width="1200" height="630" fill="url(#aura)"/>
  <rect width="1200" height="630" fill="url(#aura2)"/>

  <!-- grid -->
  <g stroke="#2A2A2A" stroke-opacity="0.4" stroke-width="1">
    <path d="M0 90H1200M0 180H1200M0 270H1200M0 360H1200M0 450H1200M0 540H1200"/>
    <path d="M120 0V630M240 0V630M360 0V630M480 0V630M600 0V630M720 0V630M840 0V630M960 0V630M1080 0V630"/>
  </g>

  <!-- icon -->
  <g transform="translate(96,205) scale(0.43)">
    <rect x="168" y="150" width="176" height="232" rx="52" fill="#2563EB" opacity="0.5"/>
    <rect x="170" y="146" width="172" height="220" rx="50" fill="url(#chip)"/>
    <rect x="238" y="170" width="36" height="6" rx="3" fill="#ffffff" opacity="0.85"/>
    <g stroke="#ffffff" stroke-width="15" stroke-linecap="round" stroke-linejoin="round" fill="none">
      <path d="M232 214c-14 6-20 22-13 36 6 13 22 18 35 13l34 70c5 10 17 14 27 9s14-17 9-27l-34-70c8-12 7-29-4-39-8-8-20-10-30-6l16 22-9 18-20 4-13-19Z"/>
    </g>
    <rect x="232" y="342" width="48" height="6" rx="3" fill="#ffffff" opacity="0.7"/>
  </g>

  <!-- wordmark -->
  <text x="290" y="300" font-family="Inter, Arial, sans-serif" font-size="84" font-weight="700" fill="url(#txt)">iStore <tspan fill="#3B82F6">Pro</tspan></text>
  <text x="294" y="356" font-family="Inter, Arial, sans-serif" font-size="30" font-weight="500" fill="#A1A1AA">Sistema inteligente para talleres de reparación</text>

  <!-- pills -->
  <g font-family="Inter, Arial, sans-serif" font-size="22" font-weight="500">
    <g transform="translate(294,400)">
      <rect width="208" height="48" rx="24" fill="#111111" stroke="#222222"/>
      <circle cx="28" cy="24" r="5" fill="#22C55E"/>
      <text x="46" y="31" fill="#E5E7EB">Órdenes y POS</text>
    </g>
    <g transform="translate(518,400)">
      <rect width="250" height="48" rx="24" fill="#111111" stroke="#222222"/>
      <circle cx="28" cy="24" r="5" fill="#2563EB"/>
      <text x="46" y="31" fill="#E5E7EB">Diagnósticos · CRM</text>
    </g>
    <g transform="translate(784,400)">
      <rect width="186" height="48" rx="24" fill="#111111" stroke="#222222"/>
      <circle cx="28" cy="24" r="5" fill="#F59E0B"/>
      <text x="46" y="31" fill="#E5E7EB">Analytics · AI</text>
    </g>
  </g>
</svg>
