<svg xmlns="http://www.w3.org/2000/svg" width="64" height="64" viewBox="0 0 64 64">
  <defs>
    <linearGradient id="c" x1="0.1" y1="0" x2="0.9" y2="1">
      <stop offset="0" stop-color="#3B82F6"/>
      <stop offset="1" stop-color="#1D4ED8"/>
    </linearGradient>
  </defs>
  <rect width="64" height="64" rx="18" fill="#0A0A0A"/>
  <rect x="18" y="14" width="28" height="36" rx="9" fill="url(#c)"/>
  <path d="M28 19h8" stroke="#fff" stroke-width="2.4" stroke-linecap="round" opacity="0.9"/>
  <path d="M28 27.5a4.3 4.3 0 0 0-1.8 5.6 4.3 4.3 0 0 0 5.4 2l4.3 8.4c.6 1.3 2.1 1.8 3.3 1.2 1.3-.6 1.7-2.1 1.1-3.3l-4.3-8.4a4.3 4.3 0 0 0-.8-5.6 4.3 4.3 0 0 0-4.3-.8l2.1 3-1.1 2.3-2.6.5L28 27.5Z" fill="#fff"/>
  <path d="M28.5 45.5h7" stroke="#fff" stroke-width="2.2" stroke-linecap="round" opacity="0.7"/>
</svg>
